# xmcd
#
# Track frame offsets:
#	150
#	15371
#	29011
#	53627
#	79934
#	95634
#	109677
#	127565
#	158883
#	172773
#	201864
#
# Disc length: 2871 seconds
#
# Revision: 1
# Processed by: cddbd v1.5.1PL0 Copyright (c) Steve Scherf et al.
# Submitted via: audiograbber 1.82.02
#
DISCID=7c0b350b
DTITLE=Svet Boogie Band - Nothing But Love
DYEAR=2005
DGENRE=Blues
TTITLE0=Miriam Boogie (instrumental)
TTITLE1=Nothing But Love - Nothing But Love
TTITLE2=Look What You Get, Girl
TTITLE3=Do You Feel It Like I Feel It?
TTITLE4=Happy With The Boogie
TTITLE5=Anna Why Are You Cryin' Tonight?
TTITLE6=From Sea To Sea
TTITLE7=Li'l Tia
TTITLE8=Let's Boogie
TTITLE9=Tverskaya 19 Stomp (instrumental)
TTITLE10=Why Oh Why?
EXTD=
EXTT0=
EXTT1=
EXTT2=
EXTT3=
EXTT4=
EXTT5=
EXTT6=
EXTT7=
EXTT8=
EXTT9=
EXTT10=
PLAYORDER=
